<?xml version="1.0" encoding="UTF-8"?>
<svg enable-background="new 0 0 512 512" version="1.1" viewBox="0 0 512 512" xml:space="preserve" xmlns="http://www.w3.org/2000/svg"><circle cx="256" cy="256" r="106.67" fill="#f87e7b"/><path d="m53.332 0c-29.455 0-53.332 23.877-53.332 53.332v106.67c0 5.891 4.777 10.668 10.668 10.668 5.891 0 10.666-4.777 10.666-10.668v-106.67c0-17.673 14.327-32 32-32h106.67c5.891 0 10.668-4.775 10.668-10.666 0-5.891-4.777-10.666-10.668-10.666h-106.67zm298.67 0c-5.891 0-10.668 4.777-10.668 10.668 0 5.891 4.777 10.664 10.668 10.664h106.67c17.673 0 32 14.327 32 32v106.67c0 5.891 4.775 10.668 10.666 10.668s10.666-4.777 10.666-10.668v-106.67c0-29.455-23.877-53.332-53.332-53.332h-106.67zm-341.33 341.33c-5.891 0-10.666 4.777-10.666 10.668v106.67c0 29.455 23.877 53.332 53.332 53.332h106.67c5.891 0 10.668-4.777 10.668-10.668s-4.777-10.664-10.668-10.664h-106.67c-17.673 0-32-14.327-32-32v-106.67c0-5.891-4.775-10.668-10.666-10.668zm490.67 0c-5.891 0-10.666 4.777-10.666 10.668v106.67c0 17.673-14.327 32-32 32h-106.67c-5.891 0-10.668 4.775-10.668 10.666s4.777 10.666 10.668 10.666h106.67c29.455 0 53.332-23.877 53.332-53.332v-106.67c0-5.891-4.777-10.668-10.668-10.668z" fill="#3fdfcc"/></svg>
